# AST/ASF file generated using VICON BodyLanguage
# -----------------------------------------------
:version 1.10
:name VICON
:units
  mass 1.0
  length 0.45
  angle deg
:documentation
   .ast/.asf automatically generated from VICON data using
   VICON BodyBuilder and BodyLanguage model FoxedUp or BRILLIANT.MOD
:root
   order TX TY TZ RX RY RZ
   axis XYZ
   position 0 0 0  
   orientation 0 0 0 
:bonedata
  begin
     id 1 
     name lhipjoint
     direction 0.64773 -0.699417 0.302095 
     length 2.48597 
     axis 0 0 0  XYZ
  end
  begin
     id 2 
     name lfemur
     direction 0.34202 -0.939693 0  
     length 6.71947  
     axis 0 0 20  XYZ
    dof rx ry rz
    limits (-160.0 20.0)
           (-70.0 70.0)
           (-60.0 70.0)
  end
  begin
     id 3 
     name ltibia
     direction 0.34202 -0.939693 0   
     length 8.08777   
     axis 0 0 20   XYZ
    dof rx
    limits (-10.0 170.0)
  end
  begin
     id 4 
     name lfoot
     direction 0.0808503 -0.222134 0.971658   
     length 2.08264   
     axis -90 7.62852e-016 20   XYZ
    dof rx rz
    limits (-45.0 90.0)
           (-70.0 20.0)
  end
  begin
     id 5 
     name ltoes
     direction 1.53502e-011 -4.22007e-011 1   
     length 1.04662   
     axis -90 7.62852e-016 20   XYZ
    dof rx
    limits (-90.0 20.0)
  end
  begin
     id 6 
     name rhipjoint
     direction -0.610924 -0.726792 0.313919   
     length 2.39233  
     axis 0 0 0  XYZ 
  end
  begin
     id 7 
     name rfemur
     direction -0.34202 -0.939693 0   
     length 6.96955   
     axis 0 0 -20   XYZ
    dof rx ry rz
    limits (-160.0 20.0)
           (-70.0 70.0)
           (-70.0 60.0)
  end
  begin
     id 8 
     name rtibia
     direction -0.34202 -0.939693 0   
     length 8.19584   
     axis 0 0 -20   XYZ
    dof rx
    limits (-10.0 170.0)
 end
 begin
     id 9 
     name rfoot
     direction -0.077777 -0.213691 0.9738   
     length 2.07539  
     axis -90 -7.62852e-016 -20   XYZ
    dof rx rz
    limits (-45.0 90.0)
           (-20.0 70.0)
  end
  begin
     id 10 
     name rtoes
     direction -1.53558e-011 -4.22006e-011 1   
     length 1.04381   
     axis -90 -7.62852e-016 -20   XYZ
    dof rx
    limits (-90.0 20.0)
  end
  begin
     id 11 
     name lowerback
     direction -0.00971646 0.996074 0.0879841   
     length 1.67643   
     axis 0 0 0   XYZ
    dof rx ry rz
    limits (-20.0 45.0)
           (-30.0 30.0)
           (-30.0 30.0)
  end
  begin
     id 12 
     name upperback
     direction 0.0127391 0.991676 0.128127   
     length 1.63741   
     axis 0 0 0   XYZ
    dof rx ry rz
    limits (-20.0 45.0)
           (-30.0 30.0)
           (-30.0 30.0)
  end
  begin
     id 13 
     name thorax
     direction 0.0167583 0.996049 0.0872067   
     length 1.65931   
     axis 0 0 0   XYZ
    dof rx ry rz
    limits (-20.0 45.0)
           (-30.0 30.0)
           (-30.0 30.0)
  end
  begin
     id 14 
     name lowerneck
     direction -0.0317829 0.998312 0.0486079   
     length 1.79021   
     axis 0 0 0   XYZ
    dof rx ry rz
    limits (-20.0 45.0)
           (-30.0 30.0)
           (-30.0 30.0)
  end
  begin
     id 15 
     name upperneck
     direction 0.0896851 0.972452 -0.215159   
     length 1.78797   
     axis 0 0 0   XYZ
    dof rx ry rz
    limits (-20.0 45.0)
           (-30.0 30.0)
           (-30.0 30.0)
  end
  begin
     id 16
     name head
     direction 0.0310949 0.996503 -0.0775582  
     length 1.81549  
     axis 0 0 0   XYZ
    dof rx ry rz
    limits (-20.0 45.0)
           (-30.0 30.0)
           (-30.0 30.0)
  end
  begin
     id 17 
     name lclavicle
     direction 0.853638 0.502051 -0.138733  
     length 3.31627  
     axis 0 0 0   XYZ
    dof ry rz
    limits (-20.0 10.0)
           (0.0 20.0)
  end
  begin
     id 18 
     name lhumerus
     direction 1 -4.48962e-011 -1.41788e-018   
     length 5.54893   
     axis 180 -30 -90   XYZ
    dof rx ry rz
    limits (-60.0 90.0)
           (-90.0 90.0)
           (-90.0 90.0)
  end
  begin
     id 19
     name lradius
     direction 1 -4.48962e-011 -4.95754e-027   
     length 3.02898   
     axis 180 -30 -90   XYZ
    dof rx
    limits (-10.0 170.0)
  end
  begin
     id 20
     name lwrist
     direction 1 -4.48952e-011 -1.03764e-026   
     length 1.51449   
     axis 9.09556e-015 90 90   XYZ
    dof ry
    limits (-180.0 0.0)
 end
  begin
     id 21 
     name lhand
     direction 1 -4.4902e-011 -2.07528e-026   
     length 0.640951   
     axis 1.3242e-014 90 90   XYZ
    dof rx rz
    limits (-90.0 90.0)
           (-45.0 45.0)
  end
  begin
     id 22 
     name lfingers
     direction 1 -4.49014e-011 -4.15056e-026   
     length 0.516751   
     axis 2.64841e-014 90 90   XYZ
    dof rx
    limits (0.0 90.0)
  end
  begin
     id 23
     name lthumb
     direction 0.707107 -6.35008e-011 0.707107   
     length 0.741954   
     axis -90 45 2.85299e-015   XYZ
    dof rx rz
    limits (-45.0 45.0)
           (-45.0 45.0)
  end
  begin
     id 24 
     name rclavicle
     direction -0.888531 0.455324 -0.0565039   
     length 3.20126  
     axis 0 0 0   XYZ 
    dof ry rz
    limits (-10.0 20.0)
           (-20.0 0.0)
  end
  begin
     id 25 
     name rhumerus
     direction -1 -4.48946e-011 -8.98298e-028  
     length 5.3519   
     axis 180 30 90   XYZ
    dof rx ry rz
    limits (-90.0 60.0)
           (-90.0 90.0)
           (-90.0 90.0)
  end
  begin
     id 26 
     name rradius
     direction -1 -4.4899e-011 -3.18779e-027   
     length 3.02531   
     axis 180 30 90   XYZ
    dof rx
    limits (-10.0 170.0)
  end
  begin
     id 27 
     name rwrist
     direction -1 -4.4897e-011 -1.03764e-026   
     length 1.51266   
     axis 9.09556e-015 -90 -90   XYZ
    dof ry
    limits (-180.0 0.0)
  end
  begin
     id 28
     name rhand
     direction -1 -4.48941e-011 -2.07528e-026   
     length 0.78389   
     axis 1.3242e-014 -90 -90   XYZ
    dof rx rz
    limits (-90.0 90.0)
           (-45.0 45.0)
  end
  begin
     id 29
     name rfingers
     direction -1 -4.49012e-011 -4.15056e-026   
     length 0.631992   
     axis 2.64841e-014 -90 -90   XYZ
    dof rx
    limits (0.0 90.0)
  end
  begin
     id 30
     name rthumb
     direction -0.707107 -6.3496e-011 0.707107   
     length 0.907418   
     axis -90 -45 -2.85299e-015   XYZ
    dof rx rz
    limits (-45.0 45.0)
           (-45.0 45.0)
  end
:hierarchy
  begin
    root lhipjoint rhipjoint lowerback
    lhipjoint lfemur
    lfemur ltibia
    ltibia lfoot
    lfoot ltoes
    rhipjoint rfemur
    rfemur rtibia
    rtibia rfoot
    rfoot rtoes
    lowerback upperback
    upperback thorax
    thorax lowerneck lclavicle rclavicle
    lowerneck upperneck
    upperneck head
    lclavicle lhumerus
    lhumerus lradius
    lradius lwrist
    lwrist lhand lthumb
    lhand lfingers
    rclavicle rhumerus
    rhumerus rradius
    rradius rwrist
    rwrist rhand rthumb
    rhand rfingers
  end

#!OML:ASF E:\Style3\Style3.ASF
:FULLY-SPECIFIED
:DEGREES
2401
root -0.362484 17.9141 0.0229051 -337.924 73.1696 -363.84
lowerback -0.299888 -1.8734 -3.08238
upperback -12.3902 -2.44085 -1.04657
thorax -13.1628 -0.726643 0.79138
lowerneck -4.01358 -10.9002 -12.354
upperneck 7.32012 -15.7209 20.2167
head 5.51273 -7.22672 7.18169
rclavicle 1.40951e-014 5.32743e-014
rhumerus 30.1709 -15.8869 -709.653
rradius 112.492
rwrist -37.1915
rhand -6.70922 23.3639
rfingers 7.12502
rthumb 19.1505 -5.71329
lclavicle 1.40951e-014 5.32743e-014
lhumerus 324.278 14.1172 1089.14
lradius 48.6108
lwrist -10.6979
lhand -7.20679 7.70184
lfingers 7.12502
lthumb 18.6719 36.8257
rfemur -32.112 19.1541 6.64185
rtibia 12.8543
rfoot -7.29513 -15.479
rtoes -21.6493
lfemur -18.8225 -21.2102 -12.2373
ltibia -6.36111e-015
lfoot -12.6554 38.7638
ltoes -2.81728
2402
root -0.367396 17.9131 0.0285311 -337.91 72.3555 -363.789
lowerback -0.252037 -2.02415 -3.008
upperback -12.4205 -2.63943 -0.917516
thorax -13.2183 -0.823957 0.914935
lowerneck -4.02665 -10.8661 -12.3499
upperneck 7.37733 -15.6716 20.0928
head 5.51172 -7.20775 7.14575
rclavicle 1.78906e-014 6.36111e-015
rhumerus 30.0394 -15.709 -709.491
rradius 112.434
rwrist -36.8419
rhand -7.21515 23.8117
rfingers 7.12502
rthumb 18.6639 -5.31295
lclavicle 1.78906e-014 6.36111e-015
lhumerus 324.246 14.0838 1089.19
lradius 48.6311
lwrist -10.721
lhand -7.25611 7.72273
lfingers 7.12502
lthumb 18.6245 36.8511
rfemur -32.3905 19.2728 6.57282
rtibia 13.0308
rfoot -7.27299 -14.8767
rtoes -21.9312
lfemur -18.5708 -20.5035 -12.6085
ltibia -3.18055e-014
lfoot -12.4271 38.7203
ltoes -3.68736
2403
root -0.37139 17.9091 0.034534 -337.856 71.5414 -363.703
lowerback -0.196334 -2.1741 -2.89344
upperback -12.4517 -2.8397 -0.843947
thorax -13.2844 -0.930081 0.956545
lowerneck -4.06613 -10.8421 -12.1493
upperneck 7.43287 -15.6396 19.917
head 5.49716 -7.19128 7.05793
rclavicle -6.95871e-014 -4.29375e-014
rhumerus 29.9295 -15.613 -709.467
rradius 112.405
rwrist -36.89
rhand -6.88505 24.0445
rfingers 7.12502
rthumb 18.9814 -5.04932
lclavicle -6.95871e-014 -4.29375e-014
lhumerus 324.249 13.956 1089.19
lradius 48.7229
lwrist -10.576
lhand -7.20688 7.75014
lfingers 7.12502
lthumb 18.6718 36.874
rfemur -32.6719 19.4977 6.43308
rtibia 13.185
rfoot -7.20238 -14.3752
rtoes -22.3783
lfemur -18.3291 -19.7951 -12.9736
ltibia 3.02153e-014
lfoot -13.2309 38.553
ltoes -2.18628
2404
root -0.372848 17.9085 0.0397564 -337.794 70.6673 -363.578
lowerback -0.117424 -2.3137 -2.79007
upperback -12.4474 -3.03007 -0.778928
thorax -13.3229 -1.0327 0.995119
lowerneck -4.24144 -10.8252 -11.9169
upperneck 7.50199 -15.6097 19.7212
head 5.50679 -7.16749 6.95098
rclavicle 6.4605e-016 -1.66979e-014
rhumerus 29.7691 -15.6101 -709.414
rradius 112.449
rwrist -37.1639
rhand -6.20942 23.969
rfingers 7.12502
rthumb 19.631 -5.05985
lclavicle 6.4605e-016 -1.66979e-014
lhumerus 324.279 13.8662 1089.18
lradius 48.798
lwrist -10.4509
lhand -7.13897 7.8216
lfingers 7.12502
lthumb 18.7372 36.9392
rfemur -32.8771 19.7504 6.26762
rtibia 13.2801
rfoot -7.09733 -13.8322
rtoes -22.7872
lfemur -18.0499 -19.0425 -13.3921
ltibia -7.95139e-015
lfoot -14.3389 38.3276
ltoes 0.0930202
2405
root -0.372988 17.9075 0.0450583 -337.905 69.7633 -363.601
lowerback -0.101262 -2.43789 -2.70202
upperback -12.4009 -3.19206 -0.651491
thorax -13.2673 -1.11865 1.10447
lowerneck -4.44651 -10.8198 -11.7512
upperneck 7.59776 -15.5886 19.4746
head 5.53203 -7.15038 6.83534
rclavicle 6.27414e-015 7.95139e-016
rhumerus 29.7226 -15.6663 -709.336
rradius 112.441
rwrist -37.2672
rhand -5.55832 23.6002
rfingers 7.12502
rthumb 20.2569 -5.3635
lclavicle 6.27414e-015 7.95139e-016
lhumerus 324.277 13.8235 1089.24
lradius 48.8189
lwrist -10.3571
lhand -6.94672 7.74933
lfingers 7.12502
lthumb 18.9221 36.849
rfemur -33.0348 19.9416 6.21235
rtibia 13.3716
rfoot -6.96861 -13.2156
rtoes -23.4572
lfemur -17.7004 -18.2485 -13.7976
ltibia -1.43125e-014
lfoot -15.2174 38.0994
ltoes 1.80856
2406
root -0.37112 17.9053 0.0491837 -337.929 68.8718 -363.503
lowerback -0.125523 -2.53309 -2.61782
upperback -12.34 -3.31763 -0.580765
thorax -13.1738 -1.19125 1.14766
lowerneck -4.49534 -10.8397 -11.551
upperneck 7.60679 -15.6096 19.2895
head 5.5135 -7.16156 6.73783
rclavicle -6.70898e-015 1.43125e-014
rhumerus 29.63 -15.6909 -709.246
rradius 112.335
rwrist -37.3628
rhand -5.19574 23.4127
rfingers 7.12502
rthumb 20.6053 -5.5136
lclavicle -6.70898e-015 1.43125e-014
lhumerus 324.365 13.7552 1089.38
lradius 48.8632
lwrist -10.2483
lhand -6.96751 8.01366
lfingers 7.12502
lthumb 18.9021 37.1152
rfemur -33.1271 20.078 6.14283
rtibia 13.467
rfoot -6.9675 -12.5564
rtoes -23.9492
lfemur -17.3087 -17.4903 -14.2648
ltibia 2.38542e-014
lfoot -15.6412 37.9371
ltoes 2.38648
2407
root -0.370105 17.9031 0.0544367 -337.885 67.9981 -363.335
lowerback -0.132478 -2.64256 -2.57754
upperback -12.305 -3.46515 -0.504846
thorax -13.119 -1.2676 1.22392
lowerneck -4.57227 -10.8313 -11.4673
upperneck 7.69885 -15.6003 19.1572
head 5.53435 -7.15446 6.67836
rclavicle -7.3687e-014 -1.35174e-014
rhumerus 29.5632 -15.664 -709.196
rradius 112.212
rwrist -37.4935
rhand -5.06849 23.5431
rfingers 7.12502
rthumb 20.7276 -5.3699
lclavicle -7.3687e-014 -1.35174e-014
lhumerus 324.404 13.6397 1089.49
lradius 48.9381
lwrist -10.189
lhand -7.06599 8.19863
lfingers 7.12502
lthumb 18.8074 37.3094
rfemur -33.223 20.2688 6.01682
rtibia 13.5285
rfoot -6.9658 -11.959
rtoes -24.6832
lfemur -16.9415 -16.755 -14.7377
ltibia -4.45278e-014
lfoot -16.1823 37.7671
ltoes 3.33191
2408
root -0.37182 17.9022 0.0603436 -337.783 67.1076 -363.18
lowerback -0.146179 -2.75986 -2.56766
upperback -12.3204 -3.62252 -0.417333
thorax -13.1176 -1.34183 1.33096
lowerneck -4.68677 -10.7123 -11.5841
upperneck 7.96064 -15.4504 19.0674
head 5.6105 -7.07541 6.68032
rclavicle -3.44891e-014 -2.38542e-014
rhumerus 29.423 -15.6012 -709.068
rradius 112.247
rwrist -37.7097
rhand -5.09565 23.6515
rfingers 7.12502
rthumb 20.7015 -5.26435
lclavicle -3.44891e-014 -2.38542e-014
lhumerus 324.368 13.2251 1089.63
lradius 49.1626
lwrist -9.97003
lhand -7.0795 8.71421
lfingers 7.12502
lthumb 18.7944 37.8263
rfemur -33.4387 20.42 5.87795
rtibia 13.6126
rfoot -6.95461 -11.3039
rtoes -24.8379
lfemur -16.6825 -15.9918 -15.1739
ltibia 0
lfoot -16.2607 37.6917
ltoes 3.23415
2409
root -0.373423 17.9008 0.0644484 -337.779 66.2395 -363.13
lowerback -0.12982 -2.81779 -2.42526
upperback -12.3622 -3.6918 -0.35136
thorax -13.1794 -1.38711 1.3342
lowerneck -4.72367 -10.6091 -11.9609
upperneck 8.16065 -15.3175 19.1234
head 5.69078 -7.01337 6.77344
rclavicle 6.53256e-014 7.15625e-015
rhumerus 29.2233 -15.4376 -708.842
rradius 112.262
rwrist -37.8283
rhand -5.04519 23.7189
rfingers 7.12502
rthumb 20.75 -5.1917
lclavicle 6.53256e-014 7.15625e-015
lhumerus 324.297 12.3865 1089.97
lradius 49.611
lwrist -9.41058
lhand -7.38835 9.17922
lfingers 7.12502
lthumb 18.4973 38.3198
rfemur -33.619 20.4129 5.85639
rtibia 13.6969
rfoot -7.00943 -10.4881
rtoes -25.0535
lfemur -16.4179 -15.2349 -15.5679
ltibia -5.08889e-014
lfoot -16.6258 37.5377
ltoes 3.75211
2410
root -0.374127 17.8983 0.0671945 -337.501 65.3671 -362.839
lowerback -0.185735 -2.84315 -2.2999
upperback -12.4275 -3.71779 -0.335525
thorax -13.2289 -1.4122 1.28427
lowerneck -4.59789 -10.7186 -12.0632
upperneck 8.07496 -15.4465 18.9752
head 5.65845 -7.0989 6.73063
rclavicle -2.64881e-014 -1.98785e-014
rhumerus 28.93 -15.2757 -708.548
rradius 112.271
rwrist -37.6391
rhand -4.98136 23.9023
rfingers 7.12502
rthumb 20.8113 -5.00158
lclavicle -2.64881e-014 -1.98785e-014
lhumerus 324.32 11.8146 1090.27
lradius 49.8886
lwrist -9.00439
lhand -7.72069 9.27892
lfingers 7.12502
lthumb 18.1776 38.4495
rfemur -33.8725 20.3408 5.69674
rtibia 13.7952
rfoot -7.05846 -9.64579
rtoes -25.3438
lfemur -16.2331 -14.5098 -16.0422
ltibia -1.11319e-014
lfoot -17.4552 37.2696
ltoes 5.29461
2411
root -0.372247 17.8958 0.071696 -337.382 64.4347 -362.703
lowerback -0.235582 -2.90243 -2.20011
upperback -12.4853 -3.78774 -0.262173
thorax -13.2658 -1.45275 1.31613
lowerneck -4.33482 -10.8587 -11.7081
upperneck 7.83744 -15.5987 18.5048
head 5.49366 -7.20905 6.5164
rclavicle -4.47266e-015 1.11319e-014
rhumerus 28.7994 -15.169 -708.319
rradius 112.271
rwrist -37.5406
rhand -5.1557 24.0547
rfingers 7.12502
rthumb 20.6438 -4.86751
lclavicle -4.47266e-015 1.11319e-014
lhumerus 324.348 11.6403 1090.39
lradius 49.9079
lwrist -8.92629
lhand -7.57994 9.52272
lfingers 7.12502
lthumb 18.313 38.6807
rfemur -34.1386 20.4305 5.54404
rtibia 13.9033
rfoot -7.06982 -8.90393
rtoes -25.359
lfemur -15.9943 -13.7036 -16.4837
ltibia 1.90833e-014
lfoot -18.2543 36.993
ltoes 6.58103
2412
root -0.372347 17.8937 0.0778364 -337.34 63.5233 -362.531
lowerback -0.189696 -3.01057 -2.21609
upperback -12.4654 -3.9392 -0.184257
thorax -13.2583 -1.52314 1.42895
lowerneck -4.29158 -10.9036 -11.4293
upperneck 7.87096 -15.6479 18.1403
head 5.44848 -7.24419 6.35134
rclavicle 8.64962e-014 2.06736e-014
rhumerus 28.7127 -15.1689 -708.223
rradius 112.268
rwrist -37.4499
rhand -5.33178 24.1673
rfingers 7.12502
rthumb 20.4746 -4.77315
lclavicle 8.64962e-014 2.06736e-014
lhumerus 324.406 11.7932 1090.41
lradius 49.8777
lwrist -9.10281
lhand -7.35314 9.58369
lfingers 7.12502
lthumb 18.5312 38.721
rfemur -34.3005 20.6209 5.39576
rtibia 14.0271
rfoot -7.0949 -8.28027
rtoes -25.7644
lfemur -15.6534 -12.9303 -16.9592
ltibia -8.5875e-014
lfoot -18.7927 36.7558
ltoes 7.41144
2413
root -0.375288 17.8887 0.083674 -337.289 62.6187 -362.4
lowerback -0.172898 -3.0991 -2.17874
upperback -12.4628 -4.06161 -0.142716
thorax -13.2607 -1.58702 1.46844
lowerneck -4.50441 -10.8963 -11.4433
upperneck 8.30655 -15.6666 17.9708
head 5.60646 -7.23596 6.28338
rclavicle 3.35946e-014 1.51076e-014
rhumerus 28.5091 -15.1633 -708.098
rradius 112.328
rwrist -37.4078
rhand -4.84912 24.0429
rfingers 7.12502
rthumb 20.9384 -4.84696
lclavicle 3.35946e-014 1.51076e-014
lhumerus 324.545 11.9694 1090.44
lradius 49.7563
lwrist -9.23585
lhand -7.42362 8.76178
lfingers 7.12502
lthumb 18.4634 37.9056
rfemur -34.5238 20.873 5.19568
rtibia 14.121
rfoot -7.14236 -7.72265
rtoes -25.6581
lfemur -15.4104 -12.1525 -17.3907
ltibia 1.59028e-015
lfoot -19.1387 36.6092
ltoes 7.76732
2414
root -0.377502 17.8832 0.0908074 -337.371 61.7501 -362.364
lowerback -0.0840646 -3.17335 -2.08334
upperback -12.4678 -4.16286 -0.0991383
thorax -13.322 -1.64538 1.48067
lowerneck -4.72619 -10.918 -11.5323
upperneck 8.6792 -15.7271 17.9395
head 5.77251 -7.2454 6.26627
rclavicle -6.25675e-014 -1.35174e-014
rhumerus 28.1269 -15.2099 -707.847
rradius 112.587
rwrist -37.5932
rhand -4.30047 23.7926
rfingers 7.12502
rthumb 21.4654 -5.03811
lclavicle -6.25675e-014 -1.35174e-014
lhumerus 324.72 12.1595 1090.49
lradius 49.5954
lwrist -9.38976
lhand -7.2706 7.93571
lfingers 7.12502
lthumb 18.6106 37.0655
rfemur -34.6678 21.0987 5.09333
rtibia 14.2007
rfoot -7.21646 -7.07322
rtoes -25.3728
lfemur -15.1423 -11.3817 -17.7407
ltibia -1.43125e-014
lfoot -19.6301 36.3848
ltoes 8.46407
